# xmcd CD database file
#
# Track frame offsets:
#	150
#	10020
#	19890
#	40758
#	61629
#	77922
#	94204
#	107372
#	120543
#	132764
#	144982
#	167831
#	190681
#	204730
#	218779
#	238708
#
# Disc length: 3447 seconds
#
# Revision: 0
# Processed by: cddbd v1.5.2PL0 Copyright (c) Steve Scherf et al.
# Submitted via: CDex 1.50
#
DISCID=cd0d7510
DTITLE=Hal Leonard - Jazz Standards - Pro Vocals
DYEAR=1900
DGENRE=Jazz
TTITLE0=Bye bye blackbird - demo track
TTITLE1=Bye bye blackbird
TTITLE2=Come rain or come shine - demo track
TTITLE3=Come rain or come shine
TTITLE4=Fever - demo track
TTITLE5=Fever
TTITLE6=The girl from Ipanema - demo track
TTITLE7=The girl from ipanema
TTITLE8=Lullaby of birdland - demo track
TTITLE9=Lullaby of birdland
TTITLE10=My funny valentine - demo track
TTITLE11=My funny valentine
TTITLE12=Stormy weather - demo track
TTITLE13=Stormy weather
TTITLE14=Tenderly - demo track
TTITLE15=Tenderly
EXTD=
EXTT0=
EXTT1=
EXTT2=
EXTT3=
EXTT4=
EXTT5=
EXTT6=
EXTT7=
EXTT8=
EXTT9=
EXTT10=
EXTT11=
EXTT12=
EXTT13=
EXTT14=
EXTT15=
PLAYORDER=
